<svg width="48" height="48" viewBox="0 0 48 48" fill="none" xmlns="http://www.w3.org/2000/svg">
<path d="M23.1794 40.299H5.40443C4.92343 40.299 4.51926 40.1345 4.19193 39.8055C3.86459 39.4765 3.70093 39.0703 3.70093 38.587C3.70093 38.1036 3.86459 37.7003 4.19193 37.377C4.51926 37.054 4.92343 36.8925 5.40443 36.8925H23.1794C23.6591 36.8925 24.0649 37.057 24.3969 37.386C24.7286 37.715 24.8944 38.1211 24.8944 38.6045C24.8944 39.0878 24.7286 39.491 24.3969 39.814C24.0649 40.1373 23.6591 40.299 23.1794 40.299ZM9.09543 33.8925C8.17243 33.8925 7.37193 33.5535 6.69393 32.8755C6.01593 32.1978 5.67693 31.3973 5.67693 30.474V11.1075C5.67693 10.1841 6.01593 9.38363 6.69393 8.70596C7.37193 8.02796 8.17243 7.68896 9.09543 7.68896H40.6074C41.0884 7.68896 41.4926 7.8558 41.8199 8.18946C42.1473 8.52346 42.3109 8.93163 42.3109 9.41396C42.3109 9.89663 42.1473 10.2996 41.8199 10.623C41.4926 10.946 41.0884 11.1075 40.6074 11.1075H9.09543V30.474H23.1794C23.6591 30.474 24.0649 30.6408 24.3969 30.9745C24.7286 31.3081 24.8944 31.7163 24.8944 32.199C24.8944 32.6816 24.7286 33.0845 24.3969 33.4075C24.0649 33.7308 23.6591 33.8925 23.1794 33.8925H9.09543ZM41.0714 37.0715V17.335H31.1214V37.0715H41.0714ZM30.4554 40.299C29.7678 40.299 29.1689 40.044 28.6589 39.534C28.1493 39.0243 27.8944 38.4256 27.8944 37.738V16.6565C27.8944 15.9668 28.1493 15.3696 28.6589 14.865C29.1689 14.36 29.7678 14.1075 30.4554 14.1075H41.7499C42.4376 14.1075 43.0363 14.36 43.5459 14.865C44.0559 15.3696 44.3109 15.9668 44.3109 16.6565V37.738C44.3109 38.4256 44.0559 39.0243 43.5459 39.534C43.0363 40.044 42.4376 40.299 41.7499 40.299H30.4554ZM36.1214 22.514C36.5491 22.514 36.9221 22.356 37.2404 22.04C37.5584 21.7243 37.7174 21.3545 37.7174 20.9305C37.7174 20.5028 37.5584 20.13 37.2404 19.812C36.9221 19.494 36.5411 19.335 36.0974 19.335C35.6898 19.335 35.3279 19.494 35.0119 19.812C34.6959 20.13 34.5379 20.5108 34.5379 20.9545C34.5379 21.3625 34.6959 21.7243 35.0119 22.04C35.3279 22.356 35.6978 22.514 36.1214 22.514Z" fill="white"/>
</svg>
