<svg width="48" height="48" viewBox="0 0 48 48" fill="none" xmlns="http://www.w3.org/2000/svg">
<path d="M7.10743 7.68896H40.8924C41.8158 7.68896 42.6163 8.02796 43.2939 8.70596C43.9719 9.38363 44.3109 10.1841 44.3109 11.1075V22.2965C44.3109 22.7775 44.1441 23.1816 43.8104 23.509C43.4764 23.8363 43.0683 24 42.5859 24C42.1033 24 41.7003 23.8363 41.3769 23.509C41.0539 23.1816 40.8924 22.7775 40.8924 22.2965V11.1075H7.10743V17.6295C7.10743 18.1101 6.94293 18.5141 6.61393 18.8415C6.28493 19.1688 5.87876 19.3325 5.39543 19.3325C4.91209 19.3325 4.50893 19.1688 4.18593 18.8415C3.86259 18.5141 3.70093 18.1101 3.70093 17.6295V11.1075C3.70093 10.1841 4.03876 9.38363 4.71443 8.70596C5.38976 8.02796 6.18743 7.68896 7.10743 7.68896ZM7.10743 40.299C6.18743 40.299 5.38976 39.9611 4.71443 39.2855C4.03876 38.6101 3.70093 37.8125 3.70093 36.8925V30.3705C3.70093 29.8908 3.86543 29.485 4.19443 29.153C4.52343 28.8213 4.92959 28.6555 5.41293 28.6555C5.89626 28.6555 6.29959 28.8213 6.62293 29.153C6.94593 29.485 7.10743 29.8908 7.10743 30.3705V36.8925H20.2464C20.7274 36.8925 21.1316 37.057 21.4589 37.386C21.7863 37.715 21.9499 38.1211 21.9499 38.6045C21.9499 39.0878 21.7863 39.491 21.4589 39.814C21.1316 40.1373 20.7274 40.299 20.2464 40.299H7.10743ZM25.9999 33.659C25.9999 32.1566 26.5333 30.8638 27.5999 29.7805C28.6666 28.6971 29.9666 28.1555 31.4999 28.1555C32.3666 28.1555 33.1916 28.3575 33.9749 28.7615C34.7583 29.1655 35.4333 29.7468 35.9999 30.5055C36.5333 29.7468 37.1916 29.1655 37.9749 28.7615C38.7583 28.3575 39.5999 28.1555 40.4999 28.1555C41.9999 28.1555 43.2916 28.6971 44.3749 29.7805C45.4583 30.8638 45.9999 32.1555 45.9999 33.6555C45.9999 34.8635 45.5916 36.0071 44.7749 37.0865C43.9583 38.1658 42.2499 39.8055 39.6499 42.0055L37.0814 44.198C36.8988 44.355 36.7173 44.4605 36.5369 44.5145C36.3569 44.5685 36.1728 44.5955 35.9844 44.5955C35.7961 44.5955 35.6059 44.5655 35.4139 44.5055C35.2219 44.4451 35.0401 44.3426 34.8684 44.198L31.9499 41.7055C29.5499 39.6468 27.9583 38.0915 27.1749 37.0395C26.3916 35.9878 25.9999 34.861 25.9999 33.659ZM35.9999 40.9785L37.5519 39.614C39.6883 37.7953 41.1004 36.5061 41.7884 35.7465C42.4764 34.9871 42.8204 34.2891 42.8204 33.6525C42.8204 33.0345 42.5888 32.4936 42.1254 32.03C41.6618 31.5666 41.1209 31.335 40.5029 31.335C40.1163 31.335 39.7679 31.4136 39.4579 31.571C39.1483 31.7283 38.8228 31.9876 38.4814 32.349L35.9999 34.6565L33.4804 32.349C33.1304 31.9876 32.7966 31.7283 32.4789 31.571C32.1616 31.4136 31.8361 31.335 31.5024 31.335C30.8471 31.335 30.2961 31.5666 29.8494 32.03C29.4028 32.4936 29.1794 33.0345 29.1794 33.6525C29.1794 34.2891 29.6303 35.113 30.5319 36.124C31.4336 37.135 32.7054 38.2945 34.3474 39.6025L35.9999 40.9785ZM13.9959 33.6555C13.6713 33.6555 13.3773 33.5808 13.1139 33.4315C12.8503 33.2821 12.6271 33.0661 12.4444 32.7835L8.94243 25.6555H5.35643C4.89243 25.6555 4.50059 25.4946 4.18093 25.173C3.86093 24.851 3.70093 24.4566 3.70093 23.99C3.70093 23.5233 3.86093 23.1305 4.18093 22.8115C4.50059 22.4921 4.89243 22.3325 5.35643 22.3325H9.99543C10.3038 22.3325 10.5884 22.4196 10.8494 22.594C11.1108 22.768 11.3088 22.9961 11.4434 23.2785L13.9879 28.2915L20.5064 15.2785C20.6478 14.9878 20.8554 14.7741 21.1294 14.6375C21.4034 14.5008 21.6916 14.4325 21.9939 14.4325C22.2966 14.4325 22.5868 14.5008 22.8644 14.6375C23.1424 14.7741 23.3521 14.9878 23.4934 15.2785L27.0074 22.3325H31.9999C32.4673 22.3325 32.8619 22.4941 33.1839 22.8175C33.5063 23.1408 33.6674 23.5371 33.6674 24.0065C33.6674 24.4755 33.5063 24.8675 33.1839 25.1825C32.8619 25.4978 32.4673 25.6555 31.9999 25.6555H25.9999C25.6726 25.6555 25.3751 25.5808 25.1074 25.4315C24.8398 25.2821 24.6394 25.0661 24.5064 24.7835L21.9499 19.7585L15.4434 32.7715C15.3114 33.0621 15.1136 33.2821 14.8499 33.4315C14.5859 33.5808 14.3013 33.6555 13.9959 33.6555Z" fill="white"/>
</svg>
