<svg width="48" height="48" viewBox="0 0 48 48" fill="none" xmlns="http://www.w3.org/2000/svg">
<path d="M7.47939 42.2035C6.99605 42.2035 6.59472 42.0417 6.27539 41.718C5.95605 41.3947 5.79639 40.9935 5.79639 40.5145V38.1165C5.79639 37.6445 5.95905 37.2447 6.28439 36.917C6.60939 36.589 7.01155 36.425 7.49089 36.425C7.97022 36.425 8.36939 36.5887 8.68839 36.916C9.00772 37.2433 9.16739 37.645 9.16739 38.121V40.519C9.16739 40.995 9.00455 41.3947 8.67889 41.718C8.35322 42.0417 7.95339 42.2035 7.47939 42.2035ZM15.7294 42.2035C15.2504 42.2035 14.8522 42.0415 14.5349 41.7175C14.2172 41.3935 14.0584 40.9917 14.0584 40.512V30.463C14.0584 29.9867 14.2206 29.5877 14.5449 29.266C14.8689 28.9443 15.2711 28.7835 15.7514 28.7835C16.2314 28.7835 16.6311 28.9443 16.9504 29.266C17.2697 29.5877 17.4294 29.9867 17.4294 30.463V40.512C17.4294 40.9917 17.2666 41.3935 16.9409 41.7175C16.6152 42.0415 16.2114 42.2035 15.7294 42.2035ZM24.0019 42.2035C23.5272 42.2035 23.1284 42.0417 22.8054 41.718C22.4821 41.3947 22.3204 40.9927 22.3204 40.512V33.463C22.3204 32.9913 22.4854 32.5915 22.8154 32.2635C23.1451 31.9355 23.5472 31.7715 24.0219 31.7715C24.4962 31.7715 24.8931 31.9355 25.2124 32.2635C25.5317 32.5915 25.6914 32.9913 25.6914 33.463V40.524C25.6914 40.9957 25.5284 41.3935 25.2024 41.7175C24.8767 42.0415 24.4766 42.2035 24.0019 42.2035ZM32.2649 42.2035C31.7816 42.2035 31.3804 42.0417 31.0614 41.718C30.7421 41.3947 30.5824 40.9927 30.5824 40.512V28.248C30.5824 27.775 30.7449 27.3768 31.0699 27.0535C31.3952 26.7302 31.7974 26.5685 32.2764 26.5685C32.7557 26.5685 33.1551 26.7302 33.4744 27.0535C33.7937 27.3768 33.9534 27.775 33.9534 28.248V40.524C33.9534 40.9957 33.7906 41.3935 33.4649 41.7175C33.1392 42.0415 32.7392 42.2035 32.2649 42.2035ZM40.5139 42.2035C40.0392 42.2035 39.6424 42.0417 39.3234 41.718C39.0041 41.3947 38.8444 40.9927 38.8444 40.512V22.248C38.8444 21.775 39.0069 21.3768 39.3319 21.0535C39.6569 20.7302 40.0567 20.5685 40.5314 20.5685C41.0061 20.5685 41.4034 20.7302 41.7234 21.0535C42.0434 21.3768 42.2034 21.775 42.2034 22.248V40.524C42.2034 40.9957 42.0404 41.3935 41.7144 41.7175C41.3887 42.0415 40.9886 42.2035 40.5139 42.2035ZM27.9809 23.11C27.5459 23.11 27.1202 23.0218 26.7039 22.8455C26.2876 22.6695 25.9072 22.4177 25.5629 22.09L19.9999 16.527L8.75539 27.7215C8.41339 28.0615 8.00405 28.2235 7.52739 28.2075C7.05105 28.1915 6.64789 28.0132 6.31789 27.6725C6.00355 27.3322 5.83805 26.9342 5.82139 26.4785C5.80472 26.0225 5.96639 25.6247 6.30639 25.285L17.6129 14.0785C17.9549 13.7395 18.3326 13.4912 18.7459 13.3335C19.1596 13.1755 19.5776 13.0965 19.9999 13.0965C20.4222 13.0965 20.8462 13.1755 21.2719 13.3335C21.6972 13.4912 22.0689 13.7395 22.3869 14.0785L27.9999 19.6915L39.2944 8.39649C39.6344 8.05682 40.0347 7.88665 40.4954 7.88599C40.9564 7.88532 41.3519 8.05532 41.6819 8.39599C41.9962 8.73632 42.1617 9.13432 42.1784 9.58999C42.1951 10.046 42.0334 10.4438 41.6934 10.7835L30.3869 22.09C30.0792 22.4307 29.7101 22.6858 29.2794 22.8555C28.8487 23.0252 28.4159 23.11 27.9809 23.11Z" fill="white"/>
</svg>
